<svg width="96" height="96" viewBox="0 0 96 96" fill="none" xmlns="http://www.w3.org/2000/svg">
<g clip-path="url(#clip0_555_35888)">
<mask id="mask0_555_35888" style="mask-type:luminance" maskUnits="userSpaceOnUse" x="0" y="0" width="96" height="96">
<path d="M96 0H0V96H96V0Z" fill="white"/>
</mask>
<g mask="url(#mask0_555_35888)">
<path d="M96 0H0V96H96V0Z" fill="#0B57D0"/>
<g style="mix-blend-mode:screen" opacity="0.6" filter="url(#filter0_f_555_35888)">
<path d="M-99.7022 85.4685L-94.0828 32.003L44.832 46.6035L39.2728 99.4962C37.7676 113.817 33.6692 125.871 26.9776 135.657C20.5653 145.376 11.3582 152.923 0.570278 157.303C-10.343 161.948 -23.0557 163.508 -37.5678 161.982C-51.9525 160.471 -64.0631 156.302 -73.8995 149.476C-83.4673 142.985 -90.8994 133.807 -95.2594 123.099C-99.8206 111.114 -101.347 98.1864 -99.7022 85.4685ZM-66.0627 73.0769L-67.5679 87.398C-68.3784 93.4395 -67.8718 99.5848 -66.0827 105.412C-64.3634 110.483 -60.9325 114.576 -55.7899 117.691C-50.6473 120.806 -43.2068 122.875 -33.4684 123.898C-23.921 124.902 -16.2448 124.422 -10.4397 122.458C-5.11153 120.696 -0.609506 117.05 2.2214 112.205C5.21618 106.646 7.01095 100.521 7.48966 94.2251L8.88449 80.9542L-66.0627 73.0769Z" fill="white" fill-opacity="0.61"/>
</g>
<g style="mix-blend-mode:screen" opacity="0.6" filter="url(#filter1_f_555_35888)">
<path d="M54.392 101.377L13.9995 94.9384L81.3779 -36.7454L132.58 -28.5839L156.242 117.514L115.754 111.06L101.416 5.77163L100.373 5.60538L54.392 101.377ZM55.4267 45.3939L131.376 57.5001L126.946 85.6504L51.0913 73.5593L55.4267 45.3939Z" fill="white" fill-opacity="0.79"/>
</g>
</g>
<path d="M54.958 35.1814V61.5476C54.958 62.8513 55.3446 64.1257 56.0689 65.2097C56.7932 66.2937 57.8226 67.1385 59.0271 67.6374C60.2315 68.1363 61.5569 68.2668 62.8355 68.0125C64.1142 67.7582 65.2887 67.1304 66.2105 66.2085C67.1323 65.2867 67.7601 64.1122 68.0145 62.8336C68.2688 61.5549 68.1383 60.2296 67.6394 59.0251C67.1405 57.8207 66.2956 56.7912 65.2116 56.0669C64.1277 55.3426 62.8532 54.9561 61.5496 54.9561H35.1834C33.8797 54.9561 32.6053 55.3426 31.5213 56.0669C30.4373 56.7912 29.5925 57.8207 29.0936 59.0251C28.5947 60.2296 28.4641 61.5549 28.7185 62.8336C28.9728 64.1122 29.6006 65.2867 30.5224 66.2085C31.4443 67.1304 32.6188 67.7582 33.8974 68.0125C35.176 68.2668 36.5014 68.1363 37.7058 67.6374C38.9103 67.1385 39.9397 66.2937 40.664 65.2097C41.3883 64.1257 41.7749 62.8513 41.7749 61.5476V35.1814C41.7749 33.8777 41.3883 32.6033 40.664 31.5193C39.9397 30.4354 38.9103 29.5905 37.7058 29.0916C36.5014 28.5927 35.176 28.4622 33.8974 28.7165C32.6188 28.9708 31.4443 29.5986 30.5224 30.5205C29.6006 31.4423 28.9728 32.6168 28.7185 33.8955C28.4641 35.1741 28.5947 36.4994 29.0936 37.7039C29.5925 38.9083 30.4373 39.9378 31.5213 40.6621C32.6053 41.3864 33.8797 41.773 35.1834 41.773H61.5496C62.8532 41.773 64.1277 41.3864 65.2116 40.6621C66.2956 39.9378 67.1405 38.9083 67.6394 37.7039C68.1383 36.4994 68.2688 35.1741 68.0145 33.8955C67.7601 32.6168 67.1323 31.4423 66.2105 30.5205C65.2887 29.5986 64.1142 28.9708 62.8355 28.7165C61.5569 28.4622 60.2315 28.5927 59.0271 29.0916C57.8226 29.5905 56.7932 30.4354 56.0689 31.5193C55.3446 32.6033 54.958 33.8777 54.958 35.1814Z" stroke="white" stroke-width="4.39437" stroke-linecap="round" stroke-linejoin="round"/>
</g>
<defs>
<filter id="filter0_f_555_35888" x="-131.064" y="1.28391" width="206.616" height="191.985" filterUnits="userSpaceOnUse" color-interpolation-filters="sRGB">
<feFlood flood-opacity="0" result="BackgroundImageFix"/>
<feBlend mode="normal" in="SourceGraphic" in2="BackgroundImageFix" result="shape"/>
<feGaussianBlur stdDeviation="15.36" result="effect1_foregroundBlur_555_35888"/>
</filter>
<filter id="filter1_f_555_35888" x="-16.72" y="-67.4661" width="203.682" height="215.7" filterUnits="userSpaceOnUse" color-interpolation-filters="sRGB">
<feFlood flood-opacity="0" result="BackgroundImageFix"/>
<feBlend mode="normal" in="SourceGraphic" in2="BackgroundImageFix" result="shape"/>
<feGaussianBlur stdDeviation="15.36" result="effect1_foregroundBlur_555_35888"/>
</filter>
<clipPath id="clip0_555_35888">
<rect width="96" height="96" rx="30" fill="white"/>
</clipPath>
</defs>
</svg>
