<svg width="580" height="580" viewBox="0 0 580 580" fill="none" xmlns="http://www.w3.org/2000/svg">
<path d="M72.4771 580C32.4337 580 0 547.528 0 507.494C0 467.461 32.4801 434.988 72.4771 434.988C112.474 434.988 145.001 467.461 145.001 507.494C145.001 547.528 112.52 580 72.4771 580ZM579.816 500.953C577.868 544.234 542.186 579.026 498.848 579.954C452.263 580.928 414.215 543.492 414.215 497.149C414.215 492.51 414.586 488.011 415.328 483.604C416.21 479.614 416.859 475.532 417.88 472.749C419.18 467.925 420.061 466.208 422.149 461.755C478.479 305.796 484.093 200.91 389.437 161.944L363.685 153.083C321.275 139.538 167.551 83.8711 167.551 188.478C168.293 218.306 163.561 241.454 236.92 248.412C240.075 248.737 243.23 248.737 246.431 248.644C247.127 248.644 247.87 248.644 248.566 248.644C253.948 248.644 259.145 249.201 264.249 250.129C264.249 250.129 264.295 250.129 264.342 250.129C303.225 257.644 332.457 292.296 331.39 333.629C330.323 376.585 295.987 411.933 253.067 414.206C205.275 416.758 165.695 378.719 165.695 331.495C162.911 274.576 183.93 243.542 92.5217 248.041C89.3201 248.412 86.1186 248.598 82.8242 248.598C37.0736 248.598 0 211.487 0 165.747C0 120.008 37.0736 82.8969 82.8242 82.8969C86.7218 82.8969 90.4806 83.1754 94.239 83.6857C94.239 83.6857 94.3779 83.6857 94.4243 83.6857C99.7139 84.4279 104.865 85.6803 109.783 87.3503C188.988 108.411 263.924 129.703 348.001 32.3332L351.017 29.3178C353.987 25.7922 357.235 22.5913 360.715 19.6224L360.854 19.5298C375.285 7.37593 393.891 0 414.261 0C460.012 0 497.085 37.111 497.085 82.8504C497.085 87.5821 496.668 92.1748 495.925 96.7209C479.639 301.157 526.735 391.058 561.21 444.684C564.876 449.183 568.077 454.054 570.769 459.25C570.769 459.296 570.862 459.389 570.908 459.435C577.265 471.821 580.605 485.97 579.909 500.953H579.816Z" fill="white"/>
</svg>
